# xmcd
#
# Track frame offsets:
#	182
#	12847
#	24107
#	37870
#	51492
#	62707
#	71982
#	81530
#	91237
#	102200
#	116347
#	127525
#	136792
#	153800
#	166600
#	179135
#	191552
#	201920
#
# Disc length: 2870 seconds
# Revision: 3
# Processed by: cddbd v1.5.2PL0 Copyright (c) Steve Scherf et al.
# Submitted via: dBpowerAMP V12.0
#
DISCID=e40b3412
DTITLE=Various Artist - The Best of Ike Turner
DYEAR=1994
DGENRE=Rhythm and Blues
TTITLE0=Jackie Brenston and His Delta Cats - Rocket "88"
TTITLE1=Jackie Brenston and His Delta Cats - My Real Gone Rocket
TTITLE2=Dennis Binder and His Orchestra - I Miss You So
TTITLE3=The Sly Fox - Hoo-Doo Say
TTITLE4=Willie King with the Ike Turner Band - Peg Leg Woman
TTITLE5=Ike Turner - I'm On Your Trail
TTITLE6=Ike Turner - I Know You Don't Love Me
TTITLE7=Ike Turner, Carlson Oliver and Little Ann - Boxdop
TTITLE8=Ike Turner's Kings of Rhythm - Matchbox
TTITLE9=Ike Turner's Kings of Rhythm - Down and Out
TTITLE10=Icky Renrut - Ho-Ho
TTITLE11=Icky Renrut - Hey-Hey
TTITLE12=Ike and Tina Turner's Kings of Rhythm - Prancing (& Tina Turner)
TTITLE13=Ike and Tina Turner's Kings of Rhythm - Steel Guitar Rag (& Tina Turner)
TTITLE14=Stacy Johnson - Consider Yourself
TTITLE15=Ike Turner and His Kings of Rhythm - The New Breed - Part 2
TTITLE16=Ike Turner - Takin' Back My Name
TTITLE17=Ike Turner - You're Still My Baby 1972
EXTD=
EXTT0=
EXTT1=
EXTT2=
EXTT3=
EXTT4=
EXTT5=
EXTT6=
EXTT7=
EXTT8=
EXTT9=
EXTT10=
EXTT11=
EXTT12=
EXTT13=
EXTT14=
EXTT15=
EXTT16=
EXTT17=
PLAYORDER=
